<?xml version="1.0" encoding="utf-8"?>
<!-- Generator: Adobe Illustrator 18.1.1, SVG Export Plug-In . SVG Version: 6.00 Build 0)  -->
<!DOCTYPE svg PUBLIC "-//W3C//DTD SVG 1.1//EN" "http://www.w3.org/Graphics/SVG/1.1/DTD/svg11.dtd">
<svg version="1.1" id="icons" xmlns="http://www.w3.org/2000/svg" xmlns:xlink="http://www.w3.org/1999/xlink" x="0px" y="0px"
	 viewBox="0 0 632 632" enable-background="new 0 0 632 632" xml:space="preserve">
<g>
	<circle fill="#8D734A" cx="316" cy="316" r="316"/>
	<g id="Layer_2_1_">
		<path fill="#FFFFFF" d="M265.9,349.8c-14-4-29.7-12.1-35.6-26.3c-2.9-6.9-7.8-31.8,7-27.1c6.4,2,10.6,13.4,16.7,17.3
			c6.9,4.5,15,6.5,23.1,7.2c1.4,0.1,13.9,1.1,20,0.9v-45.5c0,0-10.9-151.2-30.7-151.2h-25c-23.7,0-44.2,0.5-65.3,12.4
			c-17.9,10.2-31.7,26.8-31.7,48.5v115.9c0,13.3-1.4,26.9,3.6,39.4c3.1,7.8,6.7,15.4,10.6,22.8c10.8,20.1,24.9,39.8,43.7,52.9
			c12.4,8.5,26.8,13.8,41.7,13.8h53.1v-76.7C289.5,353.6,267.8,350.2,265.9,349.8 M182.2,223.8c0-3.5,19.6-2.3,28.8-5.5
			c9.5-3.3,17.7-9.3,26.8-13.3c15.3-6.6,24,9.1,19.6,21.1c-3.7,10.2-10.9,13.9-21.5,12.3c-8.7-1.2-17.2-3-25.6-5.3
			C202.5,231,182.2,227.3,182.2,223.8"/>
		<path fill="#FFFFFF" d="M487.7,378.1V262.2c0-21.7-13.8-38.3-31.9-48.5c-21.1-11.9-41.6-12.4-65.1-12.4h-25.1
			c-19.8,0-30.6,151.3-30.6,151.3v43.2c6.6,0.1,30.1,3.6,32,4.1c14,4,29.7,12.1,35.8,26.3c2.9,6.9,7.7,31.9-7.2,27.1
			c-6.2-2-10.6-13.3-16.5-17.3c-6.9-4.5-15.2-6.5-23.2-7.2c-1.4-0.1-15.3-1.1-20.8-0.9v79H388c15.2,0,29.4-5.2,41.7-13.8
			c19-13.2,33-32.7,43.7-53c4.1-7.3,7.5-15,10.8-22.8C489.1,405,487.7,391.4,487.7,378.1 M440.8,343.8c-2.7,2.2-14.4-13.5-22.8-18.5
			c-8.7-5.2-18.4-7.4-27.5-11.8c-14.9-7.4-8.6-24.2,3.4-28.7c10.2-3.7,17.7-0.4,23.3,8.7c4.6,7.4,8.7,15.1,12.5,23
			C433.4,323.7,443.6,341.6,440.8,343.8"/>
	</g>
</g>
</svg>
