<?xml version="1.0" encoding="utf-8"?>
<!-- Generator: Adobe Illustrator 18.0.0, SVG Export Plug-In . SVG Version: 6.00 Build 0)  -->
<!DOCTYPE svg PUBLIC "-//W3C//DTD SVG 1.1//EN" "http://www.w3.org/Graphics/SVG/1.1/DTD/svg11.dtd">
<svg version="1.1" id="restaurants" xmlns="http://www.w3.org/2000/svg" xmlns:xlink="http://www.w3.org/1999/xlink" x="0px"
	 y="0px" viewBox="719.1 469.8 14.2 14.2" enable-background="new 719.1 469.8 14.2 14.2" xml:space="preserve">
<g>
	<circle fill="#8D734A" cx="726.2" cy="476.9" r="7.1"/>
	<g id="Your_Icon_7_">
		<path fill="#FFFFFF" d="M729.8,480.7l-2.8-3.5c-0.1,0-0.1,0-0.2,0.1l-0.3,0.6l2.2,3.6c0.2,0.3,0.6,0.4,0.9,0.2
			C730,481.4,730,481,729.8,480.7z"/>
		<path fill="#FFFFFF" d="M726.8,476.9c0.7-0.3,1.3-0.8,1.8-1.5c0.6-0.8,0.9-1.8,0.8-2.8c0-0.1-0.1-0.2-0.2-0.2s-0.2,0-0.3,0.1
			l-1.6,2.3l-0.9,1.3l-0.2-0.3l-0.5-0.7c0.4-0.5,0.5-1.2,0.2-1.8l-0.1-0.2l0,0l-0.7-1.1c-0.1-0.1-0.3-0.2-0.4-0.1
			c-0.1,0.1-0.2,0.3-0.1,0.4l1,1.4c0.1,0.1,0,0.3-0.1,0.3c-0.1,0.1-0.3,0-0.3-0.1l-1-1.4c-0.1-0.1-0.3-0.2-0.4-0.1
			c-0.1,0.1-0.2,0.3-0.1,0.4l1,1.4c0.1,0.1,0,0.3-0.1,0.3c-0.1,0.1-0.3,0-0.3-0.1l-1-1.4c-0.1-0.1-0.3-0.2-0.4-0.1
			c-0.1,0.1-0.2,0.3-0.1,0.4l0.7,1.1l0,0l0.1,0.2c0.4,0.5,1.1,0.7,1.7,0.5l0.6,0.9l0.2,0.3l-2.6,3.8c-0.2,0.3-0.1,0.7,0.2,0.9
			c0.3,0.2,0.7,0.1,0.9-0.2l2-3.8l0.3-0.6C726.7,476.9,726.8,476.9,726.8,476.9z"/>
	</g>
</g>
</svg>
