<?xml version="1.0" encoding="utf-8"?>
<!-- Generator: Adobe Illustrator 18.0.0, SVG Export Plug-In . SVG Version: 6.00 Build 0)  -->
<!DOCTYPE svg PUBLIC "-//W3C//DTD SVG 1.1//EN" "http://www.w3.org/Graphics/SVG/1.1/DTD/svg11.dtd">
<svg version="1.1" id="icons" xmlns="http://www.w3.org/2000/svg" xmlns:xlink="http://www.w3.org/1999/xlink" x="0px" y="0px"
	 viewBox="953.5 354.6 14.2 14.2" enable-background="new 953.5 354.6 14.2 14.2" xml:space="preserve">
<g>
	<circle fill="#8D734A" cx="960.5" cy="361.7" r="7.1"/>
	<g id="Your_Icon_17_">
		<g>
			<path fill="#FFFFFF" d="M960.5,357.5c-1.6,0-2.8,1.3-2.8,2.8c0,0.4,0.1,0.7,0.2,1l0,0c0,0,0,0,0,0l2.2,4.4c0,0,0,0,0,0
				c0.1,0.2,0.2,0.3,0.4,0.3c0.2,0,0.3-0.1,0.4-0.3c0,0,0,0,0,0l2.3-4.4c0.1-0.3,0.2-0.6,0.2-1C963.4,358.7,962.1,357.5,960.5,357.5
				z M960.5,360.8c-0.5,0-0.8-0.4-0.8-0.8c0-0.5,0.4-0.8,0.8-0.8s0.8,0.4,0.8,0.8C961.4,360.4,961,360.8,960.5,360.8z"/>
		</g>
	</g>
</g>
</svg>
