<?xml version="1.0" encoding="utf-8"?>
<!-- Generator: Adobe Illustrator 18.1.1, SVG Export Plug-In . SVG Version: 6.00 Build 0)  -->
<!DOCTYPE svg PUBLIC "-//W3C//DTD SVG 1.1//EN" "http://www.w3.org/Graphics/SVG/1.1/DTD/svg11.dtd">
<svg version="1.1" id="Layer_1" xmlns="http://www.w3.org/2000/svg" xmlns:xlink="http://www.w3.org/1999/xlink" x="0px" y="0px"
	 viewBox="0 0 30 30" enable-background="new 0 0 30 30" xml:space="preserve">
<g>
	<path fill="#8D734A" d="M29,15c0,7.7-6.3,14-14,14S1,22.7,1,15C1,7.3,7.3,1,15,1S29,7.3,29,15z"/>
	<g>
		<polygon fill="#FFFFFF" points="20.2,15.3 20.2,17.6 15.2,20.6 10.1,17.6 10.1,15.3 15.2,17.9 		"/>
		<path fill="#FFFFFF" d="M15.2,17.3l9.6-4.8l-9.6-4l-9.8,4l2.1,1c0,1.2-0.2,3.6-0.3,4.4c-0.1,0.6-0.8,1.6-1.9,2.7
			c0,0-0.1,0.1-0.1,0.2c0,0.1,0.1,0.1,0.2,0.1c0.3,0,1.1-0.3,1.6-0.6c0.1,0,0.1-0.1,0.2-0.1c0.2,0,0.3,0.3,0.4,0.6
			c0.1,0.3,0.2,0.6,0.4,0.6c0,0,0.1,0,0.1,0c0.1,0,0.1,0,0.2-0.1c0.3-0.4,0.6-1.8,0.4-3.1c-0.1-1.2-0.1-3.2,0-4.3L15.2,17.3z
			 M15.1,10.5c0.4,0,0.8,0.4,0.8,0.8s-0.4,0.8-0.8,0.8c-0.4,0-0.8-0.4-0.8-0.8S14.7,10.5,15.1,10.5z"/>
	</g>
</g>
</svg>
