<?xml version="1.0" encoding="utf-8"?>
<!-- Generator: Adobe Illustrator 18.0.0, SVG Export Plug-In . SVG Version: 6.00 Build 0)  -->
<!DOCTYPE svg PUBLIC "-//W3C//DTD SVG 1.1//EN" "http://www.w3.org/Graphics/SVG/1.1/DTD/svg11.dtd">
<svg version="1.1" id="Layer_1" xmlns="http://www.w3.org/2000/svg" xmlns:xlink="http://www.w3.org/1999/xlink" x="0px" y="0px"
	 viewBox="533.7 369.8 113.3 119.5" enable-background="new 533.7 369.8 113.3 119.5" xml:space="preserve">
<g>
	<path fill="#FFFFFF" d="M639.7,456.9c-2.9,4.9-6.6,9.3-10.8,13v0v7.7c7.4-5.4,13.4-12.5,17.7-20.7H639.7L639.7,456.9z"/>
	<path fill="#FFFFFF" d="M567.6,382.4c7.7-4.2,16.5-6.7,25.9-6.7c9.2,0,17.8,2.3,25.4,6.4c2.1,1.1,4.1,2.4,6,3.8h0
		c1.4,1,2.7,2.1,4,3.2c4.5,4,8.4,8.6,11.3,13.9h0h6.8c-4.3-8.6-10.5-16-18.1-21.6c-1.3-1-2.6-1.9-4-2.7h0c-1.9-1.2-3.9-2.3-6-3.3
		c-7.7-3.6-16.3-5.7-25.4-5.7c-9.3,0-18,2.1-25.9,5.9c-1.9,0.9-3.7,1.9-5.5,3c0,0,0,0,0,0v7.2v0v5v77.1c0,0,0,0,0,0
		c1.7,1.4,3.6,2.7,5.5,3.9v-38.8h51.3v39.1v4.6c-7.6,4.1-16.2,6.4-25.4,6.4c-9.4,0-18.2-2.4-25.9-6.7c-1.9-1.1-3.7-2.2-5.5-3.5
		c0,0,0,0,0,0c-1.4-1-2.7-2.1-4-3.2c-11.2-9.9-18.4-24.3-18.4-40.4s7.1-30.5,18.4-40.4v0v-7.7c-14.8,10.9-24.4,28.4-24.4,48.1
		c0,19.7,9.6,37.2,24.4,48.1c1.3,1,2.6,1.9,4,2.7c0,0,0,0,0,0c1.8,1.1,3.6,2.1,5.5,3c7.8,3.8,16.6,5.9,25.9,5.9
		c9.1,0,17.7-2,25.4-5.7c2.1-1,4.1-2.1,6-3.3l0,0v-7.2v0v-5v-77.1l0,0c-1.9-1.5-3.9-2.9-6-4.2v39.7h-51.3V387V382.4z"/>
</g>
</svg>
